<svg xmlns="http://www.w3.org/2000/svg" xmlns:xlink="http://www.w3.org/1999/xlink" width="1140" height="1125"><g transform="translate(-100 -140)"><path d="M0 0h1360v1760H0z" fill="#fff"/><path d="M120 605h340v200H120z" stroke="#000" stroke-width="2" fill="#fff"/><use xlink:href="#a" transform="matrix(1,0,0,1,125,610) translate(46.75925925925925 108.33333333333334)"/><path d="M540 685h120v-20l40 40-40 40v-20H540z" stroke="#000" stroke-width="2" fill="#fff"/><use xlink:href="#b" transform="matrix(1,0,0,1,545,670) translate(75 40.4)"/><path d="M500 585h240v60H500z" fill="none"/><use xlink:href="#c" transform="matrix(1,0,0,1,505,590) translate(40.6111111111111 33)"/><path d="M780 580h340v250H780z" stroke="#000" stroke-width="2" fill="#fff"/><use xlink:href="#d" transform="matrix(1,0,0,1,785,585) translate(85.46296296296296 53.833333333333314)"/><use xlink:href="#e" transform="matrix(1,0,0,1,785,585) translate(43.05555555555554 133.83333333333331)"/><use xlink:href="#f" transform="matrix(1,0,0,1,785,585) translate(72.59259259259258 213.83333333333334)"/><path d="M120 1045h340v200H120z" stroke="#000" stroke-width="2" fill="#fff"/><use xlink:href="#g" transform="matrix(1,0,0,1,125,1050) translate(28.055555555555543 108.33333333333334)"/><use xlink:href="#h" transform="matrix(1,0,0,1,125,1050) translate(157.68518518518516 108.33333333333334)"/><use xlink:href="#i" transform="matrix(1,0,0,1,125,1050) translate(264.9074074074074 108.33333333333334)"/><path d="M500 1045h340v200H500z" stroke="#000" stroke-width="2" fill="#fff"/><use xlink:href="#g" transform="matrix(1,0,0,1,505,1050) translate(28.055555555555543 108.33333333333334)"/><use xlink:href="#h" transform="matrix(1,0,0,1,505,1050) translate(157.68518518518516 108.33333333333334)"/><use xlink:href="#j" transform="matrix(1,0,0,1,505,1050) translate(264.9074074074074 108.33333333333334)"/><path d="M880 1045h340v200H880z" stroke="#000" stroke-width="2" fill="#fff"/><use xlink:href="#g" transform="matrix(1,0,0,1,885,1050) translate(28.055555555555543 108.33333333333334)"/><use xlink:href="#h" transform="matrix(1,0,0,1,885,1050) translate(157.68518518518516 108.33333333333334)"/><use xlink:href="#k" transform="matrix(1,0,0,1,885,1050) translate(264.9074074074074 108.33333333333334)"/><path d="M1040 845v120h20l-40 40-40-40h20V845z" stroke="#000" stroke-width="2" fill="#fff"/><use xlink:href="#b" transform="matrix(1,0,0,1,984.9999999999998,849.9999999999998) translate(35 80.4)"/><path d="M794.32 903.66l-75.86 92.98 15.5 12.64-56.28 5.7-5.7-56.28 15.5 12.65 75.85-92.98z" stroke="#000" stroke-width="2" fill="#fff"/><use xlink:href="#b" transform="matrix(0.7748131297817408,0.6321903304526441,-0.6321903304526441,0.7748131297817408,748.5478044470887,872.762353700527) translate(35 80.4)"/><path d="M510.77 940.38L400 986.56l7.7 18.46-52.3-21.52 21.52-52.32 7.7 18.46 110.75-46.18z" stroke="#000" stroke-width="2" fill="#fff"/><g><use xlink:href="#b" transform="matrix(0.3848628976361103,0.922973753702204,-0.922973753702204,0.3848628976361103,484.9852463120221,891.5391832566913) translate(35 80.9)"/></g><g><path d="M940 540V420h-20l40-40 40 40h-20v120z" stroke="#000" stroke-width="2" fill="#fff"/></g><g><use xlink:href="#b" transform="matrix(1,0,0,1,925,384.9999999999998) translate(35 80.4)"/></g><path d="M960 369.53h240v180.94H960z" fill="none"/><g><use xlink:href="#l" transform="matrix(1,0,0,1,965,374.5333333333333) translate(83.0679012345679 24.92222222222221)"/><use xlink:href="#m" transform="matrix(1,0,0,1,965,374.5333333333333) translate(64.05555555555554 62.25555555555555)"/><use xlink:href="#n" transform="matrix(1,0,0,1,965,374.5333333333333) translate(96.85185185185185 99.5888888888889)"/><use xlink:href="#o" transform="matrix(1,0,0,1,965,374.5333333333333) translate(29.617283950617278 136.92222222222225)"/><use xlink:href="#p" transform="matrix(1,0,0,1,965,374.5333333333333) translate(115.95061728395062 136.92222222222225)"/><use xlink:href="#q" transform="matrix(1,0,0,1,965,374.5333333333333) translate(115 163.76666666666668)"/></g><path d="M790 160h340v170H790z" stroke="#000" stroke-width="2" fill="#fff"/><g><use xlink:href="#r" transform="matrix(1,0,0,1,795,165) translate(35.648148148148124 53.833333333333314)"/><use xlink:href="#s" transform="matrix(1,0,0,1,795,165) translate(209.53703703703704 53.833333333333314)"/><use xlink:href="#t" transform="matrix(1,0,0,1,795,165) translate(72.59259259259258 133.83333333333331)"/></g><defs><path d="M115-194c53 0 69 39 70 98 0 66-23 100-70 100C84 3 66-7 56-30L54 0H23l1-261h32v101c10-23 28-34 59-34zm-8 174c40 0 45-34 45-75 0-40-5-75-45-74-42 0-51 32-51 76 0 43 10 73 51 73" id="u"/><path d="M114-163C36-179 61-72 57 0H25l-1-190h30c1 12-1 29 2 39 6-27 23-49 58-41v29" id="v"/><path d="M100-194c62-1 85 37 85 99 1 63-27 99-86 99S16-35 15-95c0-66 28-99 85-99zM99-20c44 1 53-31 53-75 0-43-8-75-51-75s-53 32-53 75 10 74 51 75" id="w"/><path d="M206 0h-36l-40-164L89 0H53L-1-190h32L70-26l43-164h34l41 164 42-164h31" id="x"/><path d="M135-143c-3-34-86-38-87 0 15 53 115 12 119 90S17 21 10-45l28-5c4 36 97 45 98 0-10-56-113-15-118-90-4-57 82-63 122-42 12 7 21 19 24 35" id="y"/><path d="M100-194c63 0 86 42 84 106H49c0 40 14 67 53 68 26 1 43-12 49-29l28 8c-11 28-37 45-77 45C44 4 14-33 15-96c1-61 26-98 85-98zm52 81c6-60-76-77-97-28-3 7-6 17-6 28h103" id="z"/><g id="a"><use transform="matrix(0.1851851851851852,0,0,0.1851851851851852,0,0)" xlink:href="#u"/><use transform="matrix(0.1851851851851852,0,0,0.1851851851851852,37.03703703703704,0)" xlink:href="#v"/><use transform="matrix(0.1851851851851852,0,0,0.1851851851851852,59.074074074074076,0)" xlink:href="#w"/><use transform="matrix(0.1851851851851852,0,0,0.1851851851851852,96.11111111111111,0)" xlink:href="#x"/><use transform="matrix(0.1851851851851852,0,0,0.1851851851851852,144.07407407407408,0)" xlink:href="#y"/><use transform="matrix(0.1851851851851852,0,0,0.1851851851851852,177.40740740740742,0)" xlink:href="#z"/><use transform="matrix(0.1851851851851852,0,0,0.1851851851851852,214.44444444444446,0)" xlink:href="#v"/></g><path d="M233-177c-1 41-23 64-60 70L243 0h-38l-65-103H63V0H30v-248c88 3 205-21 203 71zM63-129c60-2 137 13 137-47 0-61-80-42-137-45v92" id="A"/><path d="M145-31C134-9 116 4 85 4 32 4 16-35 15-94c0-59 17-99 70-100 32-1 48 14 60 33 0-11-1-24 2-32h30l-1 268h-32zM93-21c41 0 51-33 51-76s-8-73-50-73c-40 0-46 35-46 75s5 74 45 74" id="B"/><path d="M84 4C-5 8 30-112 23-190h32v120c0 31 7 50 39 49 72-2 45-101 50-169h31l1 190h-30c-1-10 1-25-2-33-11 22-28 36-60 37" id="C"/><path d="M59-47c-2 24 18 29 38 22v24C64 9 27 4 27-40v-127H5v-23h24l9-43h21v43h35v23H59v120" id="D"/><g id="c"><use transform="matrix(0.11111111111111113,0,0,0.11111111111111113,0,0)" xlink:href="#A"/><use transform="matrix(0.11111111111111113,0,0,0.11111111111111113,28.777777777777782,0)" xlink:href="#z"/><use transform="matrix(0.11111111111111113,0,0,0.11111111111111113,51.00000000000001,0)" xlink:href="#B"/><use transform="matrix(0.11111111111111113,0,0,0.11111111111111113,73.22222222222223,0)" xlink:href="#C"/><use transform="matrix(0.11111111111111113,0,0,0.11111111111111113,95.44444444444446,0)" xlink:href="#z"/><use transform="matrix(0.11111111111111113,0,0,0.11111111111111113,117.66666666666669,0)" xlink:href="#y"/><use transform="matrix(0.11111111111111113,0,0,0.11111111111111113,137.66666666666669,0)" xlink:href="#D"/></g><path d="M117-194c89-4 53 116 60 194h-32v-121c0-31-8-49-39-48C34-167 62-67 57 0H25l-1-190h30c1 10-1 24 2 32 11-22 29-35 61-36" id="E"/><path d="M177-190C167-65 218 103 67 71c-23-6-38-20-44-43l32-5c15 47 100 32 89-28v-30C133-14 115 1 83 1 29 1 15-40 15-95c0-56 16-97 71-98 29-1 48 16 59 35 1-10 0-23 2-32h30zM94-22c36 0 50-32 50-73 0-42-14-75-50-75-39 0-46 34-46 75s6 73 46 73" id="F"/><path d="M24-231v-30h32v30H24zM24 0v-190h32V0H24" id="G"/><path d="M141 0L90-78 38 0H4l68-98-65-92h35l48 74 47-74h35l-64 92 68 98h-35" id="H"/><g id="d"><use transform="matrix(0.1851851851851852,0,0,0.1851851851851852,0,0)" xlink:href="#E"/><use transform="matrix(0.1851851851851852,0,0,0.1851851851851852,37.03703703703704,0)" xlink:href="#F"/><use transform="matrix(0.1851851851851852,0,0,0.1851851851851852,74.07407407407408,0)" xlink:href="#G"/><use transform="matrix(0.1851851851851852,0,0,0.1851851851851852,88.70370370370371,0)" xlink:href="#E"/><use transform="matrix(0.1851851851851852,0,0,0.1851851851851852,125.74074074074075,0)" xlink:href="#H"/></g><path d="M87 75C49 33 22-17 22-94c0-76 28-126 65-167h31c-38 41-64 92-64 168S80 34 118 75H87" id="I"/><path d="M108 0H70L1-190h34L89-25l56-165h34" id="J"/><g id="e"><use transform="matrix(0.1851851851851852,0,0,0.1851851851851852,0,0)" xlink:href="#I"/><use transform="matrix(0.1851851851851852,0,0,0.1851851851851852,22.037037037037038,0)" xlink:href="#v"/><use transform="matrix(0.1851851851851852,0,0,0.1851851851851852,44.074074074074076,0)" xlink:href="#z"/><use transform="matrix(0.1851851851851852,0,0,0.1851851851851852,81.11111111111111,0)" xlink:href="#J"/><use transform="matrix(0.1851851851851852,0,0,0.1851851851851852,114.44444444444446,0)" xlink:href="#z"/><use transform="matrix(0.1851851851851852,0,0,0.1851851851851852,151.4814814814815,0)" xlink:href="#v"/><use transform="matrix(0.1851851851851852,0,0,0.1851851851851852,173.51851851851853,0)" xlink:href="#y"/><use transform="matrix(0.1851851851851852,0,0,0.1851851851851852,206.85185185185188,0)" xlink:href="#z"/></g><path d="M115-194c55 1 70 41 70 98S169 2 115 4C84 4 66-9 55-30l1 105H24l-1-265h31l2 30c10-21 28-34 59-34zm-8 174c40 0 45-34 45-75s-6-73-45-74c-42 0-51 32-51 76 0 43 10 73 51 73" id="K"/><path d="M179-190L93 31C79 59 56 82 12 73V49c39 6 53-20 64-50L1-190h34L92-34l54-156h33" id="L"/><path d="M33-261c38 41 65 92 65 168S71 34 33 75H2C39 34 66-17 66-93S39-220 2-261h31" id="M"/><g id="f"><use transform="matrix(0.1851851851851852,0,0,0.1851851851851852,0,0)" xlink:href="#K"/><use transform="matrix(0.1851851851851852,0,0,0.1851851851851852,37.03703703703704,0)" xlink:href="#v"/><use transform="matrix(0.1851851851851852,0,0,0.1851851851851852,59.074074074074076,0)" xlink:href="#w"/><use transform="matrix(0.1851851851851852,0,0,0.1851851851851852,96.11111111111111,0)" xlink:href="#H"/><use transform="matrix(0.1851851851851852,0,0,0.1851851851851852,129.44444444444446,0)" xlink:href="#L"/><use transform="matrix(0.1851851851851852,0,0,0.1851851851851852,162.7777777777778,0)" xlink:href="#M"/></g><path d="M141-36C126-15 110 5 73 4 37 3 15-17 15-53c-1-64 63-63 125-63 3-35-9-54-41-54-24 1-41 7-42 31l-33-3c5-37 33-52 76-52 45 0 72 20 72 64v82c-1 20 7 32 28 27v20c-31 9-61-2-59-35zM48-53c0 20 12 33 32 33 41-3 63-29 60-74-43 2-92-5-92 41" id="N"/><g id="g"><use transform="matrix(0.1851851851851852,0,0,0.1851851851851852,0,0)" xlink:href="#N"/><use transform="matrix(0.1851851851851852,0,0,0.1851851851851852,37.03703703703704,0)" xlink:href="#K"/><use transform="matrix(0.1851851851851852,0,0,0.1851851851851852,74.07407407407408,0)" xlink:href="#K"/></g><g id="h"><use transform="matrix(0.1851851851851852,0,0,0.1851851851851852,0,0)" xlink:href="#y"/><use transform="matrix(0.1851851851851852,0,0,0.1851851851851852,33.333333333333336,0)" xlink:href="#v"/><use transform="matrix(0.1851851851851852,0,0,0.1851851851851852,55.370370370370374,0)" xlink:href="#J"/></g><path d="M27 0v-27h64v-190l-56 39v-29l58-41h29v221h61V0H27" id="O"/><use transform="matrix(0.1851851851851852,0,0,0.1851851851851852,0,0)" xlink:href="#O" id="i"/><path d="M101-251c82-7 93 87 43 132L82-64C71-53 59-42 53-27h129V0H18c2-99 128-94 128-182 0-28-16-43-45-43s-46 15-49 41l-32-3c6-41 34-60 81-64" id="P"/><use transform="matrix(0.1851851851851852,0,0,0.1851851851851852,0,0)" xlink:href="#P" id="j"/><path d="M126-127c33 6 58 20 58 59 0 88-139 92-164 29-3-8-5-16-6-25l32-3c6 27 21 44 54 44 32 0 52-15 52-46 0-38-36-46-79-43v-28c39 1 72-4 72-42 0-27-17-43-46-43-28 0-47 15-49 41l-32-3c6-42 35-63 81-64 48-1 79 21 79 65 0 36-21 52-52 59" id="Q"/><use transform="matrix(0.1851851851851852,0,0,0.1851851851851852,0,0)" xlink:href="#Q" id="k"/><path d="M212-179c-10-28-35-45-73-45-59 0-87 40-87 99 0 60 29 101 89 101 43 0 62-24 78-52l27 14C228-24 195 4 139 4 59 4 22-46 18-125c-6-104 99-153 187-111 19 9 31 26 39 46" id="R"/><path d="M185-189c-5-48-123-54-124 2 14 75 158 14 163 119 3 78-121 87-175 55-17-10-28-26-33-46l33-7c5 56 141 63 141-1 0-78-155-14-162-118-5-82 145-84 179-34 5 7 8 16 11 25" id="S"/><g id="l"><use transform="matrix(0.08641975308641976,0,0,0.08641975308641976,0,0)" xlink:href="#R"/><use transform="matrix(0.08641975308641976,0,0,0.08641975308641976,22.38271604938272,0)" xlink:href="#S"/><use transform="matrix(0.08641975308641976,0,0,0.08641975308641976,43.12345679012346,0)" xlink:href="#S"/></g><path d="M33 0v-248h34V0H33" id="T"/><path d="M210-169c-67 3-38 105-44 169h-31v-121c0-29-5-50-35-48C34-165 62-65 56 0H25l-1-190h30c1 10-1 24 2 32 10-44 99-50 107 0 11-21 27-35 58-36 85-2 47 119 55 194h-31v-121c0-29-5-49-35-48" id="U"/><g id="m"><use transform="matrix(0.08641975308641976,0,0,0.08641975308641976,0,0)" xlink:href="#T"/><use transform="matrix(0.08641975308641976,0,0,0.08641975308641976,8.641975308641976,0)" xlink:href="#U"/><use transform="matrix(0.08641975308641976,0,0,0.08641975308641976,34.48148148148149,0)" xlink:href="#N"/><use transform="matrix(0.08641975308641976,0,0,0.08641975308641976,51.765432098765444,0)" xlink:href="#F"/><use transform="matrix(0.08641975308641976,0,0,0.08641975308641976,69.0493827160494,0)" xlink:href="#z"/><use transform="matrix(0.08641975308641976,0,0,0.08641975308641976,86.33333333333334,0)" xlink:href="#y"/></g><path d="M153-248C145-148 188 4 80 4 36 3 13-21 6-62l32-5c4 25 16 42 43 43 27 0 39-20 39-49v-147H72v-28h81" id="V"/><g id="n"><use transform="matrix(0.08641975308641976,0,0,0.08641975308641976,0,0)" xlink:href="#V"/><use transform="matrix(0.08641975308641976,0,0,0.08641975308641976,15.555555555555557,0)" xlink:href="#S"/></g><path d="M96-169c-40 0-48 33-48 73s9 75 48 75c24 0 41-14 43-38l32 2c-6 37-31 61-74 61-59 0-76-41-82-99-10-93 101-131 147-64 4 7 5 14 7 22l-32 3c-4-21-16-35-41-35" id="W"/><g id="o"><use transform="matrix(0.08641975308641976,0,0,0.08641975308641976,0,0)" xlink:href="#S"/><use transform="matrix(0.08641975308641976,0,0,0.08641975308641976,20.740740740740744,0)" xlink:href="#D"/><use transform="matrix(0.08641975308641976,0,0,0.08641975308641976,29.382716049382726,0)" xlink:href="#N"/><use transform="matrix(0.08641975308641976,0,0,0.08641975308641976,46.66666666666667,0)" xlink:href="#D"/><use transform="matrix(0.08641975308641976,0,0,0.08641975308641976,55.308641975308646,0)" xlink:href="#G"/><use transform="matrix(0.08641975308641976,0,0,0.08641975308641976,62.13580246913581,0)" xlink:href="#W"/></g><path d="M197 0v-115H63V0H30v-248h33v105h134v-105h34V0h-34" id="X"/><path d="M127-220V0H93v-220H8v-28h204v28h-85" id="Y"/><path d="M240 0l2-218c-23 76-54 145-80 218h-23L58-218 59 0H30v-248h44l77 211c21-75 51-140 76-211h43V0h-30" id="Z"/><path d="M30 0v-248h33v221h125V0H30" id="aa"/><g id="p"><use transform="matrix(0.08641975308641976,0,0,0.08641975308641976,0,0)" xlink:href="#X"/><use transform="matrix(0.08641975308641976,0,0,0.08641975308641976,22.38271604938272,0)" xlink:href="#Y"/><use transform="matrix(0.08641975308641976,0,0,0.08641975308641976,41.308641975308646,0)" xlink:href="#Z"/><use transform="matrix(0.08641975308641976,0,0,0.08641975308641976,67.14814814814815,0)" xlink:href="#aa"/></g><g id="r"><use transform="matrix(0.1851851851851852,0,0,0.1851851851851852,0,0)" xlink:href="#y"/><use transform="matrix(0.1851851851851852,0,0,0.1851851851851852,33.333333333333336,0)" xlink:href="#D"/><use transform="matrix(0.1851851851851852,0,0,0.1851851851851852,51.851851851851855,0)" xlink:href="#N"/><use transform="matrix(0.1851851851851852,0,0,0.1851851851851852,88.88888888888889,0)" xlink:href="#D"/><use transform="matrix(0.1851851851851852,0,0,0.1851851851851852,107.40740740740739,0)" xlink:href="#G"/><use transform="matrix(0.1851851851851852,0,0,0.1851851851851852,122.03703703703705,0)" xlink:href="#W"/></g><path d="M101-234c-31-9-42 10-38 44h38v23H63V0H32v-167H5v-23h27c-7-52 17-82 69-68v24" id="ab"/><path d="M24 0v-261h32V0H24" id="ac"/><g id="s"><use transform="matrix(0.1851851851851852,0,0,0.1851851851851852,0,0)" xlink:href="#ab"/><use transform="matrix(0.1851851851851852,0,0,0.1851851851851852,18.51851851851852,0)" xlink:href="#G"/><use transform="matrix(0.1851851851851852,0,0,0.1851851851851852,33.14814814814815,0)" xlink:href="#ac"/><use transform="matrix(0.1851851851851852,0,0,0.1851851851851852,47.777777777777786,0)" xlink:href="#z"/></g><g id="t"><use transform="matrix(0.1851851851851852,0,0,0.1851851851851852,0,0)" xlink:href="#y"/><use transform="matrix(0.1851851851851852,0,0,0.1851851851851852,33.333333333333336,0)" xlink:href="#z"/><use transform="matrix(0.1851851851851852,0,0,0.1851851851851852,70.37037037037038,0)" xlink:href="#v"/><use transform="matrix(0.1851851851851852,0,0,0.1851851851851852,92.40740740740742,0)" xlink:href="#J"/><use transform="matrix(0.1851851851851852,0,0,0.1851851851851852,125.74074074074075,0)" xlink:href="#z"/><use transform="matrix(0.1851851851851852,0,0,0.1851851851851852,162.7777777777778,0)" xlink:href="#v"/></g></defs></g></svg>