<svg xmlns="http://www.w3.org/2000/svg" xmlns:xlink="http://www.w3.org/1999/xlink" width="1342" height="665"><g transform="translate(-9 -22.75)"><path d="M0 0h1360v1760H0z" fill="#fff"/><path d="M60 85c0-2.76 2.24-5 5-5h330c2.76 0 5 2.24 5 5v106.5c0 2.76-2.24 5-5 5H65c-2.76 0-5-2.24-5-5z" fill="#fff"/><path d="M60 85c0-2.76 2.24-5 5-5h330c2.76 0 5 2.24 5 5v106.5c0 2.76-2.24 5-5 5H65c-2.76 0-5-2.24-5-5zM60 120h340M230 120v76.5" stroke="#666" stroke-width="2" fill="none"/><use xlink:href="#a" transform="matrix(1,0,0,1,70,80) translate(124.51851851851852 25.333333333333336)"/><use xlink:href="#b" transform="matrix(1,0,0,1,65,122.5) translate(69.66666666666666 21.333333333333336)"/><use xlink:href="#c" transform="matrix(1,0,0,1,235,122.5) translate(39.33333333333333 21.333333333333336)"/><use xlink:href="#d" transform="matrix(1,0,0,1,65,159.5) translate(46.703703703703695 21.333333333333336)"/><use xlink:href="#e" transform="matrix(1,0,0,1,235,159.5) translate(35.62962962962963 21.333333333333336)"/><path d="M920 47.75c0-2.76 2.24-5 5-5h370c2.76 0 5 2.24 5 5v180.5c0 2.76-2.24 5-5 5H925c-2.76 0-5-2.24-5-5z" fill="#fff"/><path d="M920 47.75c0-2.76 2.24-5 5-5h370c2.76 0 5 2.24 5 5v180.5c0 2.76-2.24 5-5 5H925c-2.76 0-5-2.24-5-5zM920 82.75h380M1110 82.75v150.5" stroke="#666" stroke-width="2" fill="none"/><use xlink:href="#f" transform="matrix(1,0,0,1,930,42.75) translate(137.1111111111111 25.333333333333336)"/><use xlink:href="#b" transform="matrix(1,0,0,1,925,85.25) translate(79.66666666666666 21.333333333333336)"/><use xlink:href="#c" transform="matrix(1,0,0,1,1115,85.25) translate(49.33333333333333 21.333333333333336)"/><use xlink:href="#g" transform="matrix(1,0,0,1,925,122.25) translate(43.44444444444444 21.333333333333336)"/><use xlink:href="#c" transform="matrix(1,0,0,1,1115,122.25) translate(49.33333333333333 21.333333333333336)"/><use xlink:href="#h" transform="matrix(1,0,0,1,925,159.25) translate(69.33333333333333 21.333333333333336)"/><use xlink:href="#e" transform="matrix(1,0,0,1,1115,159.25) translate(45.62962962962963 21.333333333333336)"/><use xlink:href="#i" transform="matrix(1,0,0,1,925,196.25) translate(64.11111111111111 21.333333333333336)"/><use xlink:href="#j" transform="matrix(1,0,0,1,1115,196.25) translate(49.33333333333333 21.333333333333336)"/><path d="M400 139.78h259.87c.07 0 .13-.06.13-.13s.06-.13.13-.13H920" stroke="#999" stroke-width="2" fill="none"/><path d="M421 149.78h-2v-20h2zM920 129.52v1.12l-17.76 8.88L920 148.4v1.12l-.45.9-21.8-10.9 21.8-10.9z" fill="#999"/><path d="M420 234.75c0-2.76 2.24-5 5-5h430c2.76 0 5 2.24 5 5v217.5c0 2.76-2.24 5-5 5H425c-2.76 0-5-2.24-5-5z" fill="#fff"/><path d="M420 234.75c0-2.76 2.24-5 5-5h430c2.76 0 5 2.24 5 5v217.5c0 2.76-2.24 5-5 5H425c-2.76 0-5-2.24-5-5zM420 269.75h440M640 269.75v187.5" stroke="#666" stroke-width="2" fill="none"/><use xlink:href="#k" transform="matrix(1,0,0,1,430,229.75) translate(174.48148148148147 25.333333333333336)"/><use xlink:href="#b" transform="matrix(1,0,0,1,425,272.25) translate(94.66666666666666 21.333333333333336)"/><use xlink:href="#c" transform="matrix(1,0,0,1,645,272.25) translate(64.33333333333333 21.333333333333336)"/><use xlink:href="#g" transform="matrix(1,0,0,1,425,309.25) translate(58.44444444444444 21.333333333333336)"/><use xlink:href="#c" transform="matrix(1,0,0,1,645,309.25) translate(64.33333333333333 21.333333333333336)"/><use xlink:href="#l" transform="matrix(1,0,0,1,425,346.25) translate(51.03703703703704 21.333333333333336)"/><use xlink:href="#c" transform="matrix(1,0,0,1,645,346.25) translate(64.33333333333333 21.333333333333336)"/><use xlink:href="#m" transform="matrix(1,0,0,1,425,383.25) translate(59.888888888888886 21.333333333333336)"/><use xlink:href="#c" transform="matrix(1,0,0,1,645,383.25) translate(64.33333333333333 21.333333333333336)"/><use xlink:href="#h" transform="matrix(1,0,0,1,425,420.25) translate(84.33333333333333 21.333333333333336)"/><use xlink:href="#e" transform="matrix(1,0,0,1,645,420.25) translate(60.62962962962963 21.333333333333336)"/><path d="M60 139.78H25c-2.76 0-5 2.24-5 5V321.3c0 2.77 2.24 5 5 5h395" stroke="#999" stroke-width="2" fill="none"/><path d="M41 149.78h-2v-20h2zM420 316.3v1.13l-17.76 8.88 17.76 8.9v1.1l-.45.9-21.8-10.9 21.8-10.88z" fill="#999"/><path d="M1300 102.03h35c2.76 0 5 2.24 5 5v251.7c0 2.75-2.24 5-5 5H860" stroke="#999" stroke-width="2" fill="none"/><path d="M1321 112.03h-2v-20h2zM882.24 363.72l-21.8 10.9-.44-.9v-1.12l17.76-8.88-17.76-8.88v-1.12l.45-.9z" fill="#999"/><path d="M780 525c0-2.76 2.24-5 5-5h190c2.76 0 5 2.24 5 5v106.5c0 2.76-2.24 5-5 5H785c-2.76 0-5-2.24-5-5z" fill="#fff"/><path d="M780 525c0-2.76 2.24-5 5-5h190c2.76 0 5 2.24 5 5v106.5c0 2.76-2.24 5-5 5H785c-2.76 0-5-2.24-5-5zM780 560h200M880 560v76.5" stroke="#666" stroke-width="2" fill="none"/><use xlink:href="#n" transform="matrix(1,0,0,1,790,520) translate(64.81481481481481 25.333333333333336)"/><use xlink:href="#b" transform="matrix(1,0,0,1,785,562.5) translate(34.666666666666664 21.333333333333336)"/><use xlink:href="#c" transform="matrix(1,0,0,1,885,562.5) translate(4.333333333333329 21.333333333333336)"/><use xlink:href="#d" transform="matrix(1,0,0,1,785,599.5) translate(11.703703703703695 21.333333333333336)"/><use xlink:href="#e" transform="matrix(1,0,0,1,885,599.5) translate(0.6296296296296333 21.333333333333336)"/><path d="M340 525.25c0-2.76 2.24-5 5-5h250c2.76 0 5 2.24 5 5v106.5c0 2.76-2.24 5-5 5H345c-2.76 0-5-2.24-5-5z" fill="#fff"/><path d="M340 525.25c0-2.76 2.24-5 5-5h250c2.76 0 5 2.24 5 5v106.5c0 2.76-2.24 5-5 5H345c-2.76 0-5-2.24-5-5zM340 560.25h260M470 560.25v76.5" stroke="#666" stroke-width="2" fill="none"/><use xlink:href="#o" transform="matrix(1,0,0,1,350,520.25) translate(51.925925925925924 25.333333333333336)"/><use xlink:href="#g" transform="matrix(1,0,0,1,345,562.75) translate(13.444444444444443 21.333333333333336)"/><use xlink:href="#c" transform="matrix(1,0,0,1,475,562.75) translate(19.33333333333333 21.333333333333336)"/><use xlink:href="#p" transform="matrix(1,0,0,1,345,599.75) translate(23.740740740740733 21.333333333333336)"/><use xlink:href="#c" transform="matrix(1,0,0,1,475,599.75) translate(19.33333333333333 21.333333333333336)"/><path d="M780 579.78h-35c-2.76 0-5 2.24-5 5v86.97c0 2.76-2.24 5-5 5H305c-2.76 0-5-2.24-5-5v-48.9c0-2.77 2.24-5 5-5h35" stroke="#999" stroke-width="2" fill="none"/><path d="M761 589.78h-2v-20h2zM340 607.84v1.12l-17.76 8.88 17.76 8.9v1.1l-.45.9-21.8-10.9 21.8-10.9z" fill="#999"/><path d="M60 139.78H25c-2.76 0-5 2.24-5 5v430.25c0 2.76 2.24 5 5 5h315" stroke="#999" stroke-width="2" fill="none"/><path d="M41 149.78h-2v-20h2zM340 570.03v1.12l-17.76 8.88L340 588.9v1.13l-.45.9-21.8-10.9 21.8-10.9z" fill="#999"/><defs><path fill="#333" d="M141-36C126-15 110 5 73 4 37 3 15-17 15-53c-1-64 63-63 125-63 3-35-9-54-41-54-24 1-41 7-42 31l-33-3c5-37 33-52 76-52 45 0 72 20 72 64v82c-1 20 7 32 28 27v20c-31 9-61-2-59-35zM48-53c0 20 12 33 32 33 41-3 63-29 60-74-43 2-92-5-92 41" id="q"/><path fill="#333" d="M114-163C36-179 61-72 57 0H25l-1-190h30c1 12-1 29 2 39 6-27 23-49 58-41v29" id="r"/><path fill="#333" d="M59-47c-2 24 18 29 38 22v24C64 9 27 4 27-40v-127H5v-23h24l9-43h21v43h35v23H59v120" id="s"/><path fill="#333" d="M24-231v-30h32v30H24zM24 0v-190h32V0H24" id="t"/><path fill="#333" d="M135-143c-3-34-86-38-87 0 15 53 115 12 119 90S17 21 10-45l28-5c4 36 97 45 98 0-10-56-113-15-118-90-4-57 82-63 122-42 12 7 21 19 24 35" id="u"/><g id="a"><use transform="matrix(0.07407407407407408,0,0,0.07407407407407408,0,0)" xlink:href="#q"/><use transform="matrix(0.07407407407407408,0,0,0.07407407407407408,14.814814814814817,0)" xlink:href="#r"/><use transform="matrix(0.07407407407407408,0,0,0.07407407407407408,23.629629629629633,0)" xlink:href="#s"/><use transform="matrix(0.07407407407407408,0,0,0.07407407407407408,31.03703703703704,0)" xlink:href="#t"/><use transform="matrix(0.07407407407407408,0,0,0.07407407407407408,36.88888888888889,0)" xlink:href="#u"/><use transform="matrix(0.07407407407407408,0,0,0.07407407407407408,50.22222222222223,0)" xlink:href="#s"/><use transform="matrix(0.07407407407407408,0,0,0.07407407407407408,57.62962962962964,0)" xlink:href="#u"/></g><path fill="#333" d="M85-194c31 0 48 13 60 33l-1-100h32l1 261h-30c-2-10 0-23-3-31C134-8 116 4 85 4 32 4 16-35 15-94c0-66 23-100 70-100zm9 24c-40 0-46 34-46 75 0 40 6 74 45 74 42 0 51-32 51-76 0-42-9-74-50-73" id="v"/><g id="b"><use transform="matrix(0.07407407407407408,0,0,0.07407407407407408,0,0)" xlink:href="#t"/><use transform="matrix(0.07407407407407408,0,0,0.07407407407407408,5.851851851851853,0)" xlink:href="#v"/></g><path fill="#333" d="M117-194c89-4 53 116 60 194h-32v-121c0-31-8-49-39-48C34-167 62-67 57 0H25l-1-190h30c1 10-1 24 2 32 11-22 29-35 61-36" id="w"/><path fill="#333" d="M100-194c63 0 86 42 84 106H49c0 40 14 67 53 68 26 1 43-12 49-29l28 8c-11 28-37 45-77 45C44 4 14-33 15-96c1-61 26-98 85-98zm52 81c6-60-76-77-97-28-3 7-6 17-6 28h103" id="x"/><path fill="#333" d="M177-190C167-65 218 103 67 71c-23-6-38-20-44-43l32-5c15 47 100 32 89-28v-30C133-14 115 1 83 1 29 1 15-40 15-95c0-56 16-97 71-98 29-1 48 16 59 35 1-10 0-23 2-32h30zM94-22c36 0 50-32 50-73 0-42-14-75-50-75-39 0-46 34-46 75s6 73 46 73" id="y"/><g id="c"><use transform="matrix(0.07407407407407408,0,0,0.07407407407407408,0,0)" xlink:href="#t"/><use transform="matrix(0.07407407407407408,0,0,0.07407407407407408,5.851851851851853,0)" xlink:href="#w"/><use transform="matrix(0.07407407407407408,0,0,0.07407407407407408,20.666666666666668,0)" xlink:href="#s"/><use transform="matrix(0.07407407407407408,0,0,0.07407407407407408,28.074074074074076,0)" xlink:href="#x"/><use transform="matrix(0.07407407407407408,0,0,0.07407407407407408,42.8888888888889,0)" xlink:href="#y"/><use transform="matrix(0.07407407407407408,0,0,0.07407407407407408,57.70370370370372,0)" xlink:href="#x"/><use transform="matrix(0.07407407407407408,0,0,0.07407407407407408,72.51851851851853,0)" xlink:href="#r"/></g><path fill="#333" d="M210-169c-67 3-38 105-44 169h-31v-121c0-29-5-50-35-48C34-165 62-65 56 0H25l-1-190h30c1 10-1 24 2 32 10-44 99-50 107 0 11-21 27-35 58-36 85-2 47 119 55 194h-31v-121c0-29-5-49-35-48" id="z"/><g id="d"><use transform="matrix(0.07407407407407408,0,0,0.07407407407407408,0,0)" xlink:href="#w"/><use transform="matrix(0.07407407407407408,0,0,0.07407407407407408,14.814814814814817,0)" xlink:href="#q"/><use transform="matrix(0.07407407407407408,0,0,0.07407407407407408,29.629629629629633,0)" xlink:href="#z"/><use transform="matrix(0.07407407407407408,0,0,0.07407407407407408,51.777777777777786,0)" xlink:href="#x"/></g><path fill="#333" d="M108 0H70L1-190h34L89-25l56-165h34" id="A"/><path fill="#333" d="M96-169c-40 0-48 33-48 73s9 75 48 75c24 0 41-14 43-38l32 2c-6 37-31 61-74 61-59 0-76-41-82-99-10-93 101-131 147-64 4 7 5 14 7 22l-32 3c-4-21-16-35-41-35" id="B"/><path fill="#333" d="M106-169C34-169 62-67 57 0H25v-261h32l-1 103c12-21 28-36 61-36 89 0 53 116 60 194h-32v-121c2-32-8-49-39-48" id="C"/><g id="e"><use transform="matrix(0.07407407407407408,0,0,0.07407407407407408,0,0)" xlink:href="#A"/><use transform="matrix(0.07407407407407408,0,0,0.07407407407407408,13.333333333333336,0)" xlink:href="#q"/><use transform="matrix(0.07407407407407408,0,0,0.07407407407407408,28.148148148148152,0)" xlink:href="#r"/><use transform="matrix(0.07407407407407408,0,0,0.07407407407407408,36.96296296296297,0)" xlink:href="#B"/><use transform="matrix(0.07407407407407408,0,0,0.07407407407407408,50.296296296296305,0)" xlink:href="#C"/><use transform="matrix(0.07407407407407408,0,0,0.07407407407407408,65.11111111111111,0)" xlink:href="#q"/><use transform="matrix(0.07407407407407408,0,0,0.07407407407407408,79.92592592592592,0)" xlink:href="#r"/></g><path fill="#333" d="M24 0v-261h32V0H24" id="D"/><path fill="#333" d="M115-194c53 0 69 39 70 98 0 66-23 100-70 100C84 3 66-7 56-30L54 0H23l1-261h32v101c10-23 28-34 59-34zm-8 174c40 0 45-34 45-75 0-40-5-75-45-74-42 0-51 32-51 76 0 43 10 73 51 73" id="E"/><path fill="#333" d="M84 4C-5 8 30-112 23-190h32v120c0 31 7 50 39 49 72-2 45-101 50-169h31l1 190h-30c-1-10 1-25-2-33-11 22-28 36-60 37" id="F"/><g id="f"><use transform="matrix(0.07407407407407408,0,0,0.07407407407407408,0,0)" xlink:href="#q"/><use transform="matrix(0.07407407407407408,0,0,0.07407407407407408,14.814814814814817,0)" xlink:href="#D"/><use transform="matrix(0.07407407407407408,0,0,0.07407407407407408,20.666666666666668,0)" xlink:href="#E"/><use transform="matrix(0.07407407407407408,0,0,0.07407407407407408,35.48148148148149,0)" xlink:href="#F"/><use transform="matrix(0.07407407407407408,0,0,0.07407407407407408,50.296296296296305,0)" xlink:href="#z"/><use transform="matrix(0.07407407407407408,0,0,0.07407407407407408,72.44444444444446,0)" xlink:href="#u"/></g><path fill="#333" d="M-5 72V49h209v23H-5" id="G"/><g id="g"><use transform="matrix(0.07407407407407408,0,0,0.07407407407407408,0,0)" xlink:href="#q"/><use transform="matrix(0.07407407407407408,0,0,0.07407407407407408,14.814814814814817,0)" xlink:href="#r"/><use transform="matrix(0.07407407407407408,0,0,0.07407407407407408,23.629629629629633,0)" xlink:href="#s"/><use transform="matrix(0.07407407407407408,0,0,0.07407407407407408,31.03703703703704,0)" xlink:href="#t"/><use transform="matrix(0.07407407407407408,0,0,0.07407407407407408,36.88888888888889,0)" xlink:href="#u"/><use transform="matrix(0.07407407407407408,0,0,0.07407407407407408,50.22222222222223,0)" xlink:href="#s"/><use transform="matrix(0.07407407407407408,0,0,0.07407407407407408,57.62962962962964,0)" xlink:href="#G"/><use transform="matrix(0.07407407407407408,0,0,0.07407407407407408,72.44444444444446,0)" xlink:href="#t"/><use transform="matrix(0.07407407407407408,0,0,0.07407407407407408,78.2962962962963,0)" xlink:href="#v"/></g><g id="h"><use transform="matrix(0.07407407407407408,0,0,0.07407407407407408,0,0)" xlink:href="#s"/><use transform="matrix(0.07407407407407408,0,0,0.07407407407407408,7.407407407407408,0)" xlink:href="#t"/><use transform="matrix(0.07407407407407408,0,0,0.07407407407407408,13.259259259259261,0)" xlink:href="#s"/><use transform="matrix(0.07407407407407408,0,0,0.07407407407407408,20.666666666666668,0)" xlink:href="#D"/><use transform="matrix(0.07407407407407408,0,0,0.07407407407407408,26.518518518518526,0)" xlink:href="#x"/></g><path fill="#333" d="M179-190L93 31C79 59 56 82 12 73V49c39 6 53-20 64-50L1-190h34L92-34l54-156h33" id="H"/><g id="i"><use transform="matrix(0.07407407407407408,0,0,0.07407407407407408,0,0)" xlink:href="#H"/><use transform="matrix(0.07407407407407408,0,0,0.07407407407407408,13.333333333333336,0)" xlink:href="#x"/><use transform="matrix(0.07407407407407408,0,0,0.07407407407407408,28.148148148148152,0)" xlink:href="#q"/><use transform="matrix(0.07407407407407408,0,0,0.07407407407407408,42.96296296296297,0)" xlink:href="#r"/></g><g id="j"><use transform="matrix(0.07407407407407408,0,0,0.07407407407407408,0,0)" xlink:href="#t"/><use transform="matrix(0.07407407407407408,0,0,0.07407407407407408,5.851851851851853,0)" xlink:href="#w"/><use transform="matrix(0.07407407407407408,0,0,0.07407407407407408,20.666666666666668,0)" xlink:href="#s"/><use transform="matrix(0.07407407407407408,0,0,0.07407407407407408,28.074074074074076,0)" xlink:href="#x"/><use transform="matrix(0.07407407407407408,0,0,0.07407407407407408,42.8888888888889,0)" xlink:href="#y"/><use transform="matrix(0.07407407407407408,0,0,0.07407407407407408,57.70370370370372,0)" xlink:href="#x"/><use transform="matrix(0.07407407407407408,0,0,0.07407407407407408,72.51851851851853,0)" xlink:href="#r"/></g><path fill="#333" d="M143 0L79-87 56-68V0H24v-261h32v163l83-92h37l-77 82L181 0h-38" id="I"/><g id="k"><use transform="matrix(0.07407407407407408,0,0,0.07407407407407408,0,0)" xlink:href="#s"/><use transform="matrix(0.07407407407407408,0,0,0.07407407407407408,7.407407407407408,0)" xlink:href="#r"/><use transform="matrix(0.07407407407407408,0,0,0.07407407407407408,16.222222222222225,0)" xlink:href="#q"/><use transform="matrix(0.07407407407407408,0,0,0.07407407407407408,31.03703703703704,0)" xlink:href="#B"/><use transform="matrix(0.07407407407407408,0,0,0.07407407407407408,44.37037037037039,0)" xlink:href="#I"/><use transform="matrix(0.07407407407407408,0,0,0.07407407407407408,57.70370370370372,0)" xlink:href="#u"/></g><g id="l"><use transform="matrix(0.07407407407407408,0,0,0.07407407407407408,0,0)" xlink:href="#q"/><use transform="matrix(0.07407407407407408,0,0,0.07407407407407408,14.814814814814817,0)" xlink:href="#D"/><use transform="matrix(0.07407407407407408,0,0,0.07407407407407408,20.666666666666668,0)" xlink:href="#E"/><use transform="matrix(0.07407407407407408,0,0,0.07407407407407408,35.48148148148149,0)" xlink:href="#F"/><use transform="matrix(0.07407407407407408,0,0,0.07407407407407408,50.296296296296305,0)" xlink:href="#z"/><use transform="matrix(0.07407407407407408,0,0,0.07407407407407408,72.44444444444446,0)" xlink:href="#G"/><use transform="matrix(0.07407407407407408,0,0,0.07407407407407408,87.25925925925927,0)" xlink:href="#t"/><use transform="matrix(0.07407407407407408,0,0,0.07407407407407408,93.1111111111111,0)" xlink:href="#v"/></g><g id="m"><use transform="matrix(0.07407407407407408,0,0,0.07407407407407408,0,0)" xlink:href="#w"/><use transform="matrix(0.07407407407407408,0,0,0.07407407407407408,14.814814814814817,0)" xlink:href="#F"/><use transform="matrix(0.07407407407407408,0,0,0.07407407407407408,29.629629629629633,0)" xlink:href="#z"/><use transform="matrix(0.07407407407407408,0,0,0.07407407407407408,51.777777777777786,0)" xlink:href="#E"/><use transform="matrix(0.07407407407407408,0,0,0.07407407407407408,66.59259259259261,0)" xlink:href="#x"/><use transform="matrix(0.07407407407407408,0,0,0.07407407407407408,81.40740740740742,0)" xlink:href="#r"/></g><g id="n"><use transform="matrix(0.07407407407407408,0,0,0.07407407407407408,0,0)" xlink:href="#s"/><use transform="matrix(0.07407407407407408,0,0,0.07407407407407408,7.407407407407408,0)" xlink:href="#q"/><use transform="matrix(0.07407407407407408,0,0,0.07407407407407408,22.222222222222225,0)" xlink:href="#y"/><use transform="matrix(0.07407407407407408,0,0,0.07407407407407408,37.03703703703704,0)" xlink:href="#u"/></g><g id="o"><use transform="matrix(0.07407407407407408,0,0,0.07407407407407408,0,0)" xlink:href="#q"/><use transform="matrix(0.07407407407407408,0,0,0.07407407407407408,14.814814814814817,0)" xlink:href="#r"/><use transform="matrix(0.07407407407407408,0,0,0.07407407407407408,23.629629629629633,0)" xlink:href="#s"/><use transform="matrix(0.07407407407407408,0,0,0.07407407407407408,31.03703703703704,0)" xlink:href="#t"/><use transform="matrix(0.07407407407407408,0,0,0.07407407407407408,36.88888888888889,0)" xlink:href="#u"/><use transform="matrix(0.07407407407407408,0,0,0.07407407407407408,50.22222222222223,0)" xlink:href="#s"/><use transform="matrix(0.07407407407407408,0,0,0.07407407407407408,57.62962962962964,0)" xlink:href="#u"/><use transform="matrix(0.07407407407407408,0,0,0.07407407407407408,70.96296296296296,0)" xlink:href="#G"/><use transform="matrix(0.07407407407407408,0,0,0.07407407407407408,85.77777777777777,0)" xlink:href="#s"/><use transform="matrix(0.07407407407407408,0,0,0.07407407407407408,93.18518518518518,0)" xlink:href="#q"/><use transform="matrix(0.07407407407407408,0,0,0.07407407407407408,108,0)" xlink:href="#y"/><use transform="matrix(0.07407407407407408,0,0,0.07407407407407408,122.81481481481481,0)" xlink:href="#u"/></g><g id="p"><use transform="matrix(0.07407407407407408,0,0,0.07407407407407408,0,0)" xlink:href="#s"/><use transform="matrix(0.07407407407407408,0,0,0.07407407407407408,7.407407407407408,0)" xlink:href="#q"/><use transform="matrix(0.07407407407407408,0,0,0.07407407407407408,22.222222222222225,0)" xlink:href="#y"/><use transform="matrix(0.07407407407407408,0,0,0.07407407407407408,37.03703703703704,0)" xlink:href="#G"/><use transform="matrix(0.07407407407407408,0,0,0.07407407407407408,51.85185185185186,0)" xlink:href="#t"/><use transform="matrix(0.07407407407407408,0,0,0.07407407407407408,57.70370370370371,0)" xlink:href="#v"/></g></defs></g></svg>